<?xml version="1.0" standalone="no"?>
<!DOCTYPE svg PUBLIC "-//W3C//DTD SVG 20010904//EN"
 "http://www.w3.org/TR/2001/REC-SVG-20010904/DTD/svg10.dtd">
<svg version="1.0" xmlns="http://www.w3.org/2000/svg"
 width="900.000000pt" height="200.000000pt" viewBox="0 0 900.000000 200.000000"
 preserveAspectRatio="xMidYMid meet">

<g transform="translate(0.000000,200.000000) scale(0.100000,-0.100000)"
fill="#000000" stroke="none">
<path d="M1881 1926 c-7 -8 -35 -20 -64 -27 -29 -6 -61 -18 -73 -26 -11 -7
-23 -10 -27 -7 -3 3 -12 -3 -19 -15 -7 -12 -20 -21 -28 -21 -9 0 -34 -27 -56
-61 -34 -53 -40 -58 -49 -42 -5 10 -35 43 -66 74 -67 68 -117 84 -259 84 -82
0 -103 -4 -152 -27 -68 -31 -142 -102 -168 -161 -13 -28 -20 -65 -20 -112 0
-60 -3 -72 -20 -83 -12 -7 -34 -34 -50 -59 -25 -39 -30 -57 -30 -109 0 -35 5
-75 10 -90 11 -27 10 -27 -27 -20 -100 18 -169 19 -200 3 -40 -21 -84 -72
-128 -151 -33 -59 -36 -70 -33 -133 3 -57 5 -64 14 -44 10 22 11 22 22 -16 6
-21 18 -47 27 -58 13 -17 16 -18 25 -5 5 8 10 11 10 7 0 -10 -41 -69 -55 -79
-6 -5 -6 -8 2 -8 6 0 21 12 33 28 16 19 20 21 15 7 -4 -11 -11 -34 -15 -51 -7
-30 -6 -30 16 -20 17 8 19 12 9 14 -8 2 -15 9 -15 15 1 16 26 48 32 41 3 -3
25 -7 49 -9 24 -2 65 -7 92 -10 l47 -7 0 -51 c3 -245 21 -411 53 -472 5 -10
10 -27 11 -37 1 -10 4 -17 7 -16 10 4 49 -34 44 -42 -7 -12 72 -48 135 -61 63
-14 382 -6 440 11 30 8 28 9 -20 4 -134 -14 -348 -14 -409 0 -116 27 -198 99
-215 189 -3 18 -9 43 -12 57 -25 115 -24 328 2 470 17 93 75 219 129 275 48
52 44 55 -11 6 -45 -39 -91 -108 -80 -119 3 -3 -1 -10 -10 -17 -18 -13 -56
-158 -47 -183 3 -11 2 -13 -4 -6 -8 11 -71 23 -144 28 -41 3 -62 13 -53 27 3
5 10 7 15 4 15 -10 10 12 -6 25 -8 7 -15 22 -15 34 0 11 -7 30 -15 40 -43 56
-6 106 157 211 l36 23 46 -23 c25 -13 53 -30 61 -39 20 -20 41 -21 48 -2 3 7
28 28 55 45 33 22 55 46 68 74 l19 42 3 -33 c3 -34 -11 -62 -32 -62 -7 0 -21
-7 -32 -15 -17 -13 -14 -13 19 0 36 15 37 15 37 -7 1 -19 3 -18 15 10 8 17 19
32 25 32 6 0 5 -11 -5 -30 -8 -16 -15 -33 -15 -37 1 -4 8 6 17 22 8 17 25 40
36 52 19 21 19 22 1 19 -10 -3 -27 -7 -36 -11 -16 -6 -18 0 -18 51 0 65 10 91
31 79 8 -5 11 -4 6 0 -4 5 3 20 15 34 l23 26 -22 -19 c-13 -11 -23 -15 -23
-10 0 5 -5 1 -11 -8 -14 -25 -27 -22 -25 5 1 12 -5 30 -13 41 -11 12 -16 39
-16 85 0 58 4 72 28 104 26 35 195 163 203 154 2 -2 -12 -25 -31 -50 -19 -25
-31 -48 -26 -51 13 -9 107 11 154 32 23 11 51 29 61 41 25 28 32 27 41 -6 3
-15 23 -50 43 -78 31 -43 37 -59 40 -116 3 -43 -1 -75 -9 -90 -7 -13 -12 -32
-10 -41 1 -10 -2 -25 -7 -34 -11 -19 15 -79 46 -107 10 -10 27 -35 37 -57 10
-21 25 -41 34 -44 9 -2 -6 -4 -33 -3 l-49 2 -14 48 c-9 30 -18 45 -25 41 -6
-4 -20 4 -30 17 -20 24 -20 24 -1 -9 10 -19 25 -38 34 -43 21 -11 31 -62 19
-93 -20 -55 -69 -54 -119 2 -25 29 -20 14 11 -30 34 -50 103 -33 122 28 6 19
17 23 94 30 48 4 75 10 60 12 l-27 3 16 35 c17 35 29 43 31 22 3 -42 24 -95
43 -110 42 -35 123 -16 147 35 7 15 16 27 20 27 4 0 7 24 6 52 l-1 53 4 -47
c3 -40 7 -48 24 -48 12 0 23 -10 30 -27 17 -46 39 -63 81 -63 45 0 78 27 78
65 0 13 8 29 18 34 16 10 16 10 0 11 -22 0 -22 -5 1 63 11 32 17 57 13 57 -4
0 -14 -20 -21 -45 -7 -25 -17 -45 -21 -45 -12 0 -28 23 -35 51 -5 21 0 30 29
52 41 32 43 32 49 10 3 -12 5 -9 6 8 1 36 -7 40 -33 15 -12 -11 -37 -29 -56
-39 -20 -11 -29 -21 -23 -25 6 -4 14 -22 18 -39 3 -18 10 -33 14 -33 9 0 -2
-90 -12 -108 -5 -6 -21 -12 -38 -12 -49 0 -70 46 -67 152 1 96 4 99 82 113 20
4 36 11 36 16 0 5 -8 6 -17 3 -15 -5 -15 -3 2 11 12 9 34 15 53 13 26 -2 36 2
46 19 11 22 12 22 24 -10 28 -69 50 -103 80 -117 31 -15 42 -30 22 -30 -5 0
-10 -5 -10 -10 0 -6 7 -6 18 1 22 14 64 6 87 -17 21 -21 14 -38 -16 -42 -17
-2 -27 4 -34 20 -14 32 -60 33 -80 2 -8 -12 -25 -25 -37 -27 -13 -3 33 -4 102
-4 69 0 117 3 108 5 -36 7 -17 20 22 15 27 -4 40 -2 40 6 0 7 5 9 10 6 15 -10
12 -23 -7 -28 -10 -3 30 -5 90 -6 59 0 107 0 108 2 0 1 4 83 8 182 8 195 18
235 75 302 40 48 138 93 201 93 136 0 254 -97 271 -224 3 -23 8 -52 10 -65 5
-22 3 -23 -11 -11 -14 11 -18 11 -25 1 -5 -10 -10 -3 -15 20 -4 18 -28 55 -55
83 -26 28 -54 65 -63 81 l-15 30 -7 -30 c-4 -16 -13 -34 -19 -40 -7 -5 -15
-21 -19 -35 -6 -24 -5 -24 18 5 14 17 25 36 25 43 0 21 108 -100 120 -134 12
-34 0 -110 -17 -107 -5 1 -8 -10 -6 -25 4 -27 -16 -55 -60 -85 -26 -18 -3 -75
33 -79 23 -3 25 -7 24 -48 0 -25 1 -40 3 -33 4 12 31 7 138 -29 78 -26 111
-43 163 -85 30 -24 41 -40 37 -51 -4 -11 1 -9 18 6 13 12 27 19 30 15 11 -10
8 -18 -14 -42 -18 -19 -23 -20 -37 -9 -16 12 -16 11 -2 -7 8 -11 33 -41 56
-67 35 -40 43 -58 57 -131 30 -152 15 -291 -45 -410 -83 -167 -200 -211 -493
-187 -217 18 -342 29 -440 40 -204 23 -339 31 -503 30 -158 0 -318 -13 -330
-25 -3 -3 24 -2 59 2 35 5 174 8 309 8 246 0 404 -10 395 -24 -2 -5 30 -11 73
-14 42 -4 95 -8 117 -11 22 -2 85 -10 140 -16 169 -19 400 -24 463 -10 61 13
117 38 108 47 -3 3 16 29 42 58 113 124 156 310 116 509 -9 45 -21 87 -27 94
-7 9 -3 20 14 40 18 20 19 22 3 9 -28 -23 -36 -22 -68 12 l-28 29 30 30 c29
29 30 31 13 46 -10 9 -21 13 -24 9 -4 -3 -20 6 -35 20 -16 15 -31 24 -35 21
-4 -4 -19 5 -33 19 -15 15 -30 27 -35 27 -4 0 -20 5 -36 12 -15 6 -31 11 -35
10 -4 -1 -21 4 -38 12 -27 11 -29 14 -15 26 14 12 14 15 -2 32 -12 13 -20 44
-24 92 -5 55 -6 48 -3 -32 3 -90 1 -103 -12 -98 -9 3 -22 6 -30 6 -12 0 -14
21 -11 120 3 116 4 122 30 146 l27 25 0 -42 c0 -70 10 -38 15 50 6 86 -5 144
-43 217 -56 109 -203 161 -338 118 -67 -21 -145 -89 -170 -150 l-15 -37 -20
32 c-10 17 -25 31 -32 31 -7 0 -24 11 -37 25 -13 14 -31 25 -40 25 -9 0 -21 5
-27 11 -6 6 -32 15 -58 20 -38 7 -53 5 -85 -11 -22 -11 -50 -20 -63 -20 -14 0
-36 -14 -56 -35 -35 -39 -46 -43 -55 -19 -9 25 -7 34 8 34 12 0 10 12 -10 55
-13 31 -24 64 -24 74 0 21 -30 51 -51 51 -10 1 -9 4 4 15 18 13 16 15 -22 34
-48 25 -67 26 -113 7 l-34 -15 4 35 c5 39 0 41 -36 16 -46 -32 -59 -33 -54 -6
5 27 0 30 -17 10z m-12 -126 c83 -28 131 -34 176 -21 37 10 39 9 78 -30 l40
-39 -6 -67 c-6 -80 5 -122 29 -103 11 10 18 10 26 2 15 -15 -17 -63 -37 -56
-8 4 -15 1 -15 -6 0 -7 -7 -27 -16 -45 -12 -26 -23 -34 -55 -39 -23 -4 -44
-14 -51 -26 -7 -11 -20 -20 -29 -20 -9 0 -28 -9 -42 -20 -43 -34 -112 -19
-164 36 -14 15 -33 24 -51 24 -31 0 -84 48 -96 88 -4 11 -15 18 -27 18 -28 -1
-48 29 -31 46 9 9 15 9 24 0 24 -24 30 -11 24 51 -5 47 -3 72 9 102 18 42 52
85 68 85 5 0 20 9 34 20 32 25 39 25 112 0z m591 -210 c34 -36 53 -38 77 -7
l17 24 41 -28 c34 -23 43 -36 58 -91 10 -34 19 -72 19 -83 2 -27 -28 -88 -56
-114 l-23 -21 -13 25 c-11 20 -21 25 -50 25 -20 0 -45 -7 -56 -15 -18 -14 -17
-14 9 -3 21 9 30 9 40 -1 9 -10 8 -14 -5 -22 -10 -6 -18 -19 -18 -30 0 -18 -6
-20 -47 -18 -55 3 -115 29 -158 69 -16 16 -39 30 -49 32 -21 3 -44 33 -34 44
4 3 21 -5 38 -20 39 -32 53 -33 39 -2 -13 27 3 172 21 206 12 22 76 59 103 60
11 0 32 -13 47 -30z m-902 -133 c-7 -14 -13 -17 -16 -9 -6 19 6 44 18 37 7 -4
6 -14 -2 -28z m-600 -43 c-9 -8 -36 7 -42 23 -11 28 6 34 26 8 11 -14 18 -28
16 -31z m2268 -12 c-14 -14 -16 -14 -16 -1 0 20 23 44 29 28 2 -6 -4 -18 -13
-27z m-1521 -68 c3 -12 21 -31 40 -43 40 -24 38 -44 -7 -67 -38 -20 -45 -12
-63 62 -12 53 -12 62 3 84 15 23 17 24 20 5 1 -11 5 -30 7 -41z m81 31 c19
-15 19 -15 -1 -9 -40 14 0 -13 47 -30 26 -10 49 -25 52 -34 12 -36 -3 -156
-22 -182 -26 -35 -75 -39 -96 -8 -22 31 -20 56 8 120 l24 54 -39 22 c-28 16
-39 29 -39 46 0 39 30 49 66 21z m897 -87 c-1 -35 -2 -71 -3 -80 0 -14 -8 -18
-34 -18 -32 0 -34 2 -38 38 -4 32 0 43 31 79 20 22 38 42 41 42 3 1 4 -27 3
-61z m-105 -8 c26 -39 30 -90 6 -90 -27 0 -54 20 -54 41 0 11 -4 17 -10 14 -5
-3 -10 3 -10 13 0 11 7 23 16 26 10 4 14 12 10 22 -10 27 17 10 42 -26z m-254
-66 c9 -24 9 -24 -31 -24 l-38 1 24 19 c28 24 37 25 45 4z m156 6 c0 -13 -30
-13 -50 0 -11 7 -7 10 18 10 17 0 32 -4 32 -10z m-737 -48 c-4 -38 -2 -52 12
-66 10 -9 15 -19 12 -23 -11 -10 -57 46 -57 69 0 21 24 68 35 68 2 0 1 -22 -2
-48z m367 -21 c0 -35 -14 -61 -32 -61 -5 0 -4 9 2 19 5 11 10 36 10 56 0 22 4
34 10 30 6 -3 10 -23 10 -44z m1330 -1026 c-14 -8 -29 -14 -35 -14 -5 0 1 6
15 14 14 8 30 14 35 14 6 0 -1 -6 -15 -14z m-567 -12 c-7 -2 -19 -2 -25 0 -7
3 -2 5 12 5 14 0 19 -2 13 -5z m145 -10 c-10 -2 -26 -2 -35 0 -10 3 -2 5 17 5
19 0 27 -2 18 -5z m342 -3 c-14 -4 -43 -8 -65 -8 l-40 1 45 7 c65 10 92 10 60
0z m-237 -7 c-13 -2 -35 -2 -50 0 -16 2 -5 4 22 4 28 0 40 -2 28 -4z"/>
<path d="M2047 1724 c-12 -12 4 -24 30 -24 21 0 24 2 13 15 -13 16 -32 20 -43
9z"/>
<path d="M1723 1705 c-7 -21 -2 -25 25 -18 12 3 22 12 22 19 0 19 -39 18 -47
-1z"/>
<path d="M2047 1656 c-7 -18 1 -26 25 -26 11 0 18 7 18 20 0 23 -35 28 -43 6z"/>
<path d="M1747 1646 c-4 -9 -2 -18 4 -21 14 -9 51 5 46 18 -6 18 -44 20 -50 3z"/>
<path d="M2040 1524 c-17 -10 -18 -13 -5 -8 11 3 26 7 33 7 6 0 12 4 12 9 0
12 -11 9 -40 -8z"/>
<path d="M1840 1500 c8 -5 20 -10 25 -10 6 0 3 5 -5 10 -8 5 -19 10 -25 10 -5
0 -3 -5 5 -10z"/>
<path d="M1980 1500 c-8 -5 -10 -10 -5 -10 6 0 17 5 25 10 8 5 11 10 5 10 -5
0 -17 -5 -25 -10z"/>
<path d="M1898 1493 c12 -2 32 -2 45 0 12 2 2 4 -23 4 -25 0 -35 -2 -22 -4z"/>
<path d="M2055 1478 c-13 -29 -107 -50 -183 -42 -43 5 -55 11 -67 33 -19 35
-19 18 0 -19 15 -30 55 -59 55 -41 0 5 -4 11 -10 13 -5 2 29 3 75 3 72 1 83
-1 71 -13 -8 -8 -37 -14 -72 -14 -48 -1 -54 -3 -30 -9 49 -14 107 5 144 47 17
21 32 43 32 51 0 19 -4 16 -15 -9z"/>
<path d="M2371 1547 c-6 -8 -8 -16 -5 -19 10 -10 44 4 44 18 0 18 -24 18 -39
1z"/>
<path d="M2567 1553 c-14 -13 -6 -23 19 -23 22 0 25 2 14 15 -14 16 -23 19
-33 8z"/>
<path d="M2380 1465 c0 -10 7 -15 18 -13 21 4 19 22 -2 26 -10 2 -16 -3 -16
-13z"/>
<path d="M2567 1473 c-13 -12 -7 -23 13 -23 11 0 20 7 20 15 0 15 -21 21 -33
8z"/>
<path d="M3010 1669 c0 -21 -63 -74 -128 -109 -35 -18 -74 -46 -87 -62 -14
-17 -30 -26 -39 -22 -31 12 -49 -81 -26 -141 12 -32 20 -123 13 -143 -3 -7
-15 -18 -27 -22 -17 -7 -15 -9 15 -9 29 -1 38 3 42 19 4 16 14 20 45 20 23 0
45 6 52 15 7 8 20 15 28 15 9 0 -4 10 -28 23 -52 26 -72 53 -50 67 12 8 12 11
-3 28 -11 12 -17 35 -17 67 0 42 4 52 36 82 26 24 39 31 44 22 10 -14 31 -3
25 14 -2 7 18 29 46 50 27 20 49 32 49 25 1 -8 6 -6 14 5 7 9 18 17 24 17 9 0
9 7 0 25 -12 26 -28 34 -28 14z m-236 -291 c-8 -12 -34 11 -34 30 0 13 3 12
20 -3 11 -10 17 -22 14 -27z"/>
<path d="M1386 1611 c-3 -5 4 -11 16 -14 25 -7 33 -3 23 12 -8 13 -32 14 -39
2z"/>
<path d="M1096 1598 c5 -8 2 -9 -9 -5 -10 3 -17 2 -17 -4 0 -14 32 -7 38 9 2
6 -1 12 -8 12 -6 0 -8 -5 -4 -12z"/>
<path d="M1381 1561 c-8 -5 -10 -14 -7 -20 9 -13 33 -15 40 -2 9 14 -18 31
-33 22z"/>
<path d="M1090 1535 c0 -8 9 -15 20 -15 11 0 20 7 20 15 0 8 -9 15 -20 15 -11
0 -20 -7 -20 -15z"/>
<path d="M3080 1516 c0 -9 30 -14 35 -6 4 6 -3 10 -14 10 -12 0 -21 -2 -21 -4z"/>
<path d="M3090 1470 c-13 -8 -12 -10 3 -10 9 0 17 5 17 10 0 12 -1 12 -20 0z"/>
<path d="M7474 1466 c-6 -6 -9 -17 -6 -24 2 -7 -5 -12 -17 -12 -12 0 -21 -4
-21 -10 0 -5 5 -10 10 -10 23 0 8 -21 -20 -26 -16 -4 -27 -11 -24 -16 4 -6 18
-8 33 -5 23 4 20 0 -24 -41 -35 -32 -43 -44 -28 -40 16 4 20 2 16 -9 -5 -12 0
-12 23 3 16 10 32 23 36 29 5 7 8 6 8 -1 0 -17 -41 -50 -99 -79 -39 -19 -50
-29 -41 -35 8 -5 23 -4 34 2 21 11 21 11 2 -11 -23 -25 -11 -28 17 -3 11 9 17
11 13 5 -4 -7 -3 -13 3 -13 5 0 12 6 14 13 4 9 6 9 6 -1 1 -8 6 -10 14 -6 7 5
5 -2 -4 -16 -22 -35 -84 -75 -146 -96 -29 -10 -53 -21 -53 -25 0 -16 35 -18
58 -3 l25 17 -22 -32 c-26 -36 -12 -42 20 -8 17 17 21 18 16 5 -8 -23 9 -23
22 0 6 9 11 11 11 5 0 -20 20 -15 20 4 0 13 3 14 12 5 24 -24 -52 -71 -152
-91 -49 -10 -62 -8 -119 12 -36 12 -66 28 -69 35 -3 11 0 12 17 3 11 -7 21 -9
21 -5 0 3 7 1 15 -6 13 -11 14 -10 9 4 -5 12 -2 15 10 10 36 -14 13 8 -27 25
-23 10 -49 26 -57 36 -14 17 -13 18 8 13 12 -4 22 -2 22 4 0 5 5 6 10 3 6 -3
10 -2 10 3 0 5 -14 15 -30 22 -36 15 -53 35 -21 25 24 -7 29 10 5 19 -9 4 -14
13 -10 21 3 8 1 15 -5 15 -6 0 -7 5 -4 10 3 6 2 10 -4 10 -5 0 -12 10 -14 23
l-4 22 -8 -22 c-4 -13 -12 -23 -17 -23 -5 0 -6 -4 -3 -10 3 -5 2 -10 -4 -10
-6 0 -8 -7 -5 -15 4 -8 -1 -17 -10 -21 -24 -9 -19 -26 5 -19 32 10 15 -10 -21
-25 -23 -9 -28 -16 -20 -25 6 -7 21 -10 33 -7 20 5 21 4 7 -13 -8 -10 -35 -27
-60 -38 -31 -14 -40 -21 -27 -24 10 -3 14 -9 10 -16 -4 -7 1 -6 10 2 9 7 17
10 17 7 0 -4 10 -2 21 5 17 9 20 8 17 -3 -2 -7 -25 -20 -51 -29 -48 -16 -70
-29 -48 -29 7 0 10 -3 8 -7 -6 -10 44 -10 60 0 6 4 14 3 18 -3 9 -15 -51 -47
-101 -55 -25 -3 -42 -10 -39 -15 3 -5 13 -6 23 -3 15 6 16 5 2 -13 -14 -17
-14 -18 1 -6 9 7 23 10 31 7 8 -3 32 4 52 15 20 12 36 19 36 16 0 -3 -15 -13
-32 -23 -26 -14 -29 -18 -15 -21 12 -2 16 -9 13 -19 -5 -13 -4 -14 8 -4 8 7
19 10 24 7 5 -3 21 5 36 19 l26 24 27 -25 c15 -14 32 -23 39 -20 6 2 17 -1 24
-7 10 -9 11 -7 5 10 -5 19 -3 22 12 17 17 -5 17 -5 1 8 -9 7 -25 19 -35 26
-10 7 0 4 21 -8 21 -12 46 -18 54 -15 8 3 22 0 31 -7 15 -12 15 -11 1 6 -13
17 -13 19 0 14 8 -3 35 11 60 31 42 34 44 34 27 8 -21 -32 -7 -37 17 -4 l17
22 -6 -22 c-8 -27 3 -30 21 -5 11 14 13 14 14 2 0 -9 6 -5 15 10 13 22 14 23
15 5 1 -20 1 -20 15 -1 9 12 15 14 15 7 0 -42 -111 -100 -235 -123 -36 -7 -65
-16 -65 -20 0 -11 39 -20 63 -13 20 6 20 4 -6 -19 -22 -21 -25 -26 -11 -26 10
0 31 12 47 28 l29 27 -16 -35 -17 -35 27 30 c23 25 27 26 22 9 -5 -18 4 -16
74 22 44 24 87 49 96 56 13 10 13 8 -1 -9 -10 -11 -45 -35 -78 -53 -57 -30
-69 -50 -29 -50 10 0 22 4 25 10 15 25 24 7 10 -21 -9 -17 -14 -33 -12 -35 8
-8 37 26 38 44 1 9 5 1 9 -18 l6 -35 11 35 c11 33 11 33 12 8 1 -33 21 -38 21
-5 0 18 2 19 10 7 7 -12 10 -8 10 15 l1 30 14 -25 14 -25 1 30 c1 29 1 29 17
10 15 -19 15 -19 10 5 -5 20 -2 26 12 26 13 0 16 -7 14 -26 l-4 -25 15 25 15
25 1 -35 c1 -34 2 -34 13 -10 l11 25 4 -30 c4 -26 5 -28 12 -10 8 17 9 17 9
-7 1 -33 20 -38 22 -5 1 20 2 20 6 2 3 -11 10 -24 15 -30 7 -7 9 -1 4 18 -8
34 7 36 22 2 6 -14 16 -25 22 -25 14 0 12 13 -5 36 -22 29 -18 33 15 21 22 -8
33 -8 41 0 9 9 -3 19 -47 42 -33 16 -72 42 -89 56 -31 27 -20 25 25 -5 14 -9
55 -33 91 -52 62 -34 66 -35 62 -15 -3 18 -1 17 12 -5 8 -16 21 -28 26 -28 7
0 4 11 -6 26 -22 35 -14 40 15 9 13 -14 31 -25 39 -25 11 1 6 9 -14 25 l-30
25 39 -3 c70 -4 48 18 -36 37 -95 21 -169 55 -192 88 -20 28 -21 49 -1 22 14
-19 14 -19 15 1 1 18 2 17 15 -5 9 -15 15 -19 15 -10 1 12 3 12 14 -2 18 -24
25 -22 19 5 -6 21 -6 21 15 -3 12 -14 21 -20 22 -13 0 6 -4 15 -10 18 -5 3
-10 11 -10 16 0 6 14 -1 31 -16 17 -14 34 -23 38 -20 3 4 -5 15 -19 27 l-25
20 23 -5 c26 -6 52 1 52 13 0 5 -26 14 -57 20 -97 20 -180 66 -159 87 4 4 12
1 17 -7 8 -12 12 -12 16 -2 4 10 8 9 19 -5 13 -17 13 -17 14 1 0 16 2 15 19
-5 11 -13 23 -21 27 -17 4 5 0 16 -9 26 -27 29 -20 33 18 11 23 -14 42 -18 57
-13 23 7 23 6 4 -15 -11 -11 -30 -21 -43 -21 -14 0 -21 -4 -18 -10 3 -5 17
-10 30 -10 13 0 27 -4 30 -10 3 -5 20 -10 37 -10 22 0 29 -4 25 -14 -12 -32
122 -37 168 -6 42 28 53 25 24 -6 l-24 -25 50 1 c28 1 73 -2 100 -5 l50 -7
-31 20 c-51 32 -52 49 -2 20 28 -17 53 -25 66 -21 33 8 27 18 -18 32 -38 11
-76 39 -66 48 2 3 13 0 24 -6 15 -8 23 -6 37 9 12 13 14 20 6 20 -25 0 -81 33
-81 47 0 12 3 13 13 5 9 -7 17 -8 27 -1 11 8 12 12 3 15 -21 9 -63 45 -63 55
0 5 15 9 33 9 l32 1 -37 20 c-42 22 -51 40 -15 32 21 -6 21 -6 -3 15 -17 15
-20 21 -10 22 13 0 13 1 0 10 -8 5 -11 10 -7 10 5 0 1 8 -9 17 -13 13 -19 14
-22 5 -2 -7 -10 -19 -19 -27 -10 -10 -11 -15 -2 -15 7 0 5 -8 -7 -21 -19 -22
-19 -22 5 -14 32 10 19 -10 -23 -36 l-31 -19 28 0 c15 0 27 -4 27 -9 0 -14
-49 -50 -77 -57 -12 -4 -23 -10 -23 -15 0 -5 7 -5 17 -2 12 5 14 3 8 -8 -7
-11 -6 -12 7 -2 8 7 18 10 21 6 4 -3 13 0 22 7 10 9 15 9 15 1 0 -16 -60 -51
-87 -51 -12 0 -25 -5 -29 -12 -5 -7 -2 -9 9 -5 10 4 14 2 11 -6 -5 -13 40 -16
53 -4 3 4 12 7 20 7 27 0 -6 -37 -47 -54 -41 -16 -79 -22 -67 -9 4 4 -6 12
-23 19 -39 17 -39 32 0 26 40 -6 38 11 -2 23 -43 14 -48 33 -6 28 l33 -4 -37
21 c-40 22 -49 40 -20 41 13 0 12 3 -5 11 -27 13 -31 30 -5 21 16 -6 16 -5 1
13 -9 10 -19 28 -23 38 -8 22 -8 22 -28 -21 -14 -29 -14 -31 1 -26 10 3 7 -3
-8 -16 -20 -18 -21 -21 -5 -21 15 0 15 -3 -6 -25 -26 -27 -42 -33 -34 -12 3
10 -14 21 -53 35 -82 30 -184 119 -123 107 11 -2 20 1 20 7 0 6 9 3 20 -7 22
-20 28 -7 8 14 -11 11 -9 11 9 2 15 -8 24 -8 28 0 8 12 10 11 -41 33 -38 16
-94 60 -94 72 0 3 16 -4 36 -15 27 -16 35 -18 31 -7 -4 10 -1 13 9 9 28 -10
13 12 -26 39 -39 27 -55 53 -25 42 32 -13 36 9 4 24 -26 11 -30 16 -16 19 23
6 22 23 -2 23 -22 0 -37 16 -21 22 6 2 2 8 -8 14 -13 8 -20 8 -28 0z m-362
-553 c14 1 24 5 21 10 -8 12 17 8 42 -9 18 -12 28 -13 44 -4 32 16 25 -3 -9
-29 -23 -17 -38 -20 -64 -16 -43 9 -99 42 -91 56 5 6 11 7 18 0 7 -5 24 -9 39
-8z"/>
<path d="M3638 1439 c-21 -11 -38 -15 -38 -9 0 15 -26 12 -60 -5 -17 -9 -30
-11 -30 -6 0 5 -14 2 -31 -6 -25 -12 -33 -13 -39 -3 -6 9 -11 7 -20 -9 -7 -13
-17 -20 -26 -17 -9 3 -21 -8 -34 -34 -11 -22 -25 -40 -30 -40 -13 0 -28 -82
-18 -102 5 -10 17 -18 27 -18 13 0 20 -10 25 -30 11 -59 102 -73 137 -22 11
15 19 17 37 11 17 -7 22 -16 22 -44 0 -25 8 -44 25 -60 25 -26 45 -30 80 -16
11 5 27 5 36 0 25 -13 57 1 64 28 3 14 16 47 29 74 25 51 25 92 0 82 -10 -4
-14 3 -14 21 0 15 -6 26 -13 26 -13 0 -47 80 -48 115 0 11 -3 14 -6 8 -8 -21
-18 -15 -21 10 -1 13 -5 33 -9 45 -8 20 -8 20 -45 1z m-72 -121 c29 -24 30
-24 80 -26 28 -2 36 -9 59 -54 20 -39 27 -66 27 -111 0 -72 -21 -105 -24 -36
-1 24 -2 53 -2 63 -2 24 -36 47 -43 29 -3 -7 -17 -13 -31 -13 -15 0 -33 -4
-41 -9 -22 -14 -70 12 -89 50 -22 44 -67 55 -113 27 -17 -10 -35 -18 -40 -16
-17 6 44 69 89 93 59 30 92 31 128 3z m-76 -110 c13 -25 13 -31 0 -55 -22 -40
-70 -43 -99 -7 -36 45 -5 98 54 92 20 -2 34 -12 45 -30z m187 -70 c27 -25 29
-45 7 -76 -32 -46 -114 -17 -114 40 0 25 36 58 62 58 12 0 32 -10 45 -22z"/>
<path d="M3437 1283 c-13 -12 -7 -23 13 -23 11 0 20 7 20 15 0 15 -21 21 -33
8z"/>
<path d="M3430 1200 c-12 -7 -12 -12 -2 -22 9 -9 15 -9 24 0 16 16 -2 34 -22
22z"/>
<path d="M3616 1122 c-2 -4 -1 -14 4 -22 7 -11 12 -12 21 -3 6 6 8 16 5 22 -8
13 -23 14 -30 3z"/>
<path d="M6586 1445 c4 -8 1 -15 -6 -15 -6 0 -8 -5 -5 -11 4 -6 -1 -17 -11
-25 -11 -9 -13 -13 -6 -9 20 10 14 -17 -10 -44 l-23 -25 28 17 c26 17 27 17
27 -1 0 -19 -28 -49 -65 -71 -18 -11 -18 -11 5 -5 42 11 45 10 42 -16 -2 -22
-29 -52 -89 -100 -11 -8 -13 -11 -7 -7 7 5 21 7 32 5 10 -2 26 3 35 11 15 12
17 11 17 -6 0 -33 -37 -71 -93 -92 -28 -12 -43 -21 -32 -20 42 3 55 -2 55 -18
1 -17 1 -17 14 0 7 9 20 17 29 17 13 0 14 -5 8 -22 -10 -30 -65 -66 -118 -81
-53 -14 -55 -25 -5 -23 30 1 36 -2 34 -17 -2 -14 2 -16 20 -12 13 3 79 10 148
15 69 6 136 12 150 14 14 2 32 4 40 5 8 1 -9 10 -39 21 -61 22 -101 54 -101
82 0 21 11 23 28 6 10 -10 15 -10 22 2 9 14 15 6 10 -15 -1 -5 2 -7 6 -3 4 4
13 3 21 -3 17 -14 17 2 1 20 -11 11 -10 13 4 8 10 -3 20 -2 23 3 3 5 -15 15
-40 21 -50 13 -95 56 -95 92 1 21 2 21 14 4 8 -10 20 -15 29 -11 8 3 26 1 39
-5 21 -10 21 -10 3 1 -78 50 -141 151 -82 132 47 -15 51 -15 32 -3 -38 22 -65
52 -65 71 0 18 1 18 28 1 l27 -17 -21 25 c-35 40 -40 53 -18 46 18 -7 18 -7 0
7 -10 8 -15 19 -11 25 3 6 1 11 -4 11 -6 0 -11 7 -11 15 0 8 -4 15 -10 15 -5
0 -7 -7 -4 -15z"/>
<path d="M1160 1430 c0 -5 5 -10 11 -10 5 0 7 5 4 10 -3 6 -8 10 -11 10 -2 0
-4 -4 -4 -10z"/>
<path d="M1238 1403 c12 -2 30 -2 40 0 9 3 -1 5 -23 4 -22 0 -30 -2 -17 -4z"/>
<path d="M8509 1406 c-1 -3 -2 -11 -3 -17 0 -7 -10 -15 -21 -20 -18 -7 -18 -8
-2 -8 25 -1 11 -21 -14 -21 -11 0 -18 -4 -14 -10 3 -5 12 -7 20 -3 25 9 17
-11 -17 -40 -18 -16 -27 -26 -20 -22 6 3 12 1 12 -5 0 -6 10 -4 25 6 14 9 25
12 25 6 0 -14 -42 -46 -80 -62 -30 -13 -44 -37 -14 -26 12 5 15 2 10 -10 -5
-14 -4 -15 9 -4 8 7 15 9 15 6 0 -4 9 -2 20 4 33 18 24 -9 -15 -46 -20 -18
-58 -41 -85 -51 -28 -10 -50 -21 -50 -25 0 -11 18 -10 43 3 l21 12 -18 -29
-19 -29 28 25 c25 22 27 23 22 5 -7 -20 -7 -20 8 -1 10 13 15 15 15 6 0 -9 6
-8 20 5 22 20 26 14 10 -14 -11 -21 -87 -56 -142 -66 -21 -4 -35 -12 -32 -17
3 -5 18 -7 33 -4 l26 6 -24 -20 c-13 -11 -17 -20 -10 -20 7 0 21 8 32 18 19
17 20 16 7 -8 l-13 -25 22 19 c22 20 22 20 16 0 -7 -19 -6 -19 9 0 11 14 16
15 16 6 0 -9 5 -7 15 6 11 14 14 15 15 4 0 -13 1 -13 10 0 6 9 10 10 10 3 0
-16 -56 -57 -105 -75 l-39 -16 52 -7 c40 -5 58 -3 77 9 34 22 45 20 15 -3
l-24 -19 42 -12 c24 -6 52 -8 62 -5 11 4 20 2 20 -4 0 -6 7 -7 17 -4 12 5 14
3 8 -7 -6 -10 -4 -12 8 -7 10 3 17 3 17 -2 0 -4 11 -13 25 -19 19 -9 25 -9 25
0 0 7 9 2 20 -10 28 -29 36 -28 16 3 -16 24 -16 25 14 19 38 -8 40 10 2 25
-15 6 -41 23 -57 37 l-30 25 50 -27 c28 -15 60 -33 73 -41 16 -10 22 -10 22
-2 0 7 9 4 21 -7 22 -19 22 -19 9 5 l-13 24 28 -21 c38 -30 57 -27 20 3 l-30
25 31 -6 c17 -3 34 -2 38 4 3 6 -23 16 -64 26 -80 18 -145 48 -159 74 -7 14
-6 18 10 18 10 0 19 -5 19 -10 0 -5 3 -6 7 -3 3 4 12 -1 20 -11 13 -16 14 -15
8 4 -6 22 2 25 57 25 42 0 42 16 0 24 -59 11 -119 41 -138 69 -9 15 -14 29
-10 33 3 3 6 1 6 -6 0 -7 5 -9 10 -6 6 3 10 -2 10 -12 0 -14 2 -15 9 -4 7 11
11 10 21 -5 9 -15 10 -15 6 -2 -6 19 23 33 38 18 12 -12 36 -14 36 -2 0 4 -25
18 -55 31 -54 23 -105 62 -105 79 0 16 41 22 47 6 3 -8 10 -14 15 -14 6 0 4 7
-3 16 -12 15 -11 16 9 10 37 -12 25 0 -32 33 -30 16 -57 35 -61 41 -12 19 3
23 27 8 41 -27 48 -8 10 28 -30 29 -33 34 -14 29 13 -4 22 -2 22 4 0 6 -9 11
-20 11 -21 0 -29 20 -7 20 6 1 1 7 -13 15 -14 7 -24 17 -22 21 2 5 -1 10 -7
12 -6 2 -12 1 -12 -2z"/>
<path d="M1400 1365 c-7 -9 -10 -19 -6 -22 4 -4 -4 -13 -16 -20 -13 -7 -18
-12 -12 -13 7 0 22 9 35 20 15 12 19 19 10 20 -11 0 -11 3 -1 15 7 8 10 15 7
15 -2 0 -10 -7 -17 -15z"/>
<path d="M1162 1328 c7 -15 15 -23 17 -17 2 6 -4 18 -13 27 -15 15 -15 15 -4
-10z"/>
<path d="M3087 1321 c-3 -13 -1 -18 9 -14 7 2 10 11 7 19 -7 19 -10 18 -16 -5z"/>
<path d="M2850 1326 c0 -2 7 -7 16 -10 8 -3 12 -2 9 4 -6 10 -25 14 -25 6z"/>
<path d="M1335 1300 c-3 -5 -16 -10 -28 -10 -18 0 -19 -2 -7 -10 13 -8 12 -12
-6 -30 -24 -24 -46 -19 -64 16 -7 13 -20 24 -28 24 -17 0 -6 -18 39 -61 l27
-27 29 32 c28 31 57 76 49 76 -3 0 -8 -4 -11 -10z"/>
<path d="M1425 1287 c-14 -11 -15 -16 -5 -22 8 -5 11 -4 6 3 -3 6 6 15 21 20
16 6 21 11 12 11 -8 1 -23 -5 -34 -12z"/>
<path d="M3050 1285 c-8 -10 -30 -15 -61 -15 -48 0 -48 0 -43 -29 4 -17 0 -41
-10 -59 -21 -41 -21 -41 17 -38 17 1 42 -2 55 -6 21 -7 22 -5 22 51 0 44 5 65
21 85 21 27 21 37 -1 11z m-35 -35 c-3 -5 -17 -10 -30 -10 -13 0 -27 5 -30 10
-4 6 8 10 30 10 22 0 34 -4 30 -10z"/>
<path d="M1090 1276 c0 -2 7 -7 16 -10 8 -3 12 -2 9 4 -6 10 -25 14 -25 6z"/>
<path d="M1472 1255 c0 -16 2 -22 5 -12 2 9 2 23 0 30 -3 6 -5 -1 -5 -18z"/>
<path d="M1116 1232 l-19 -27 24 22 c12 12 21 24 18 27 -2 2 -13 -8 -23 -22z"/>
<path d="M1331 1204 c0 -11 3 -14 6 -6 3 7 2 16 -1 19 -3 4 -6 -2 -5 -13z"/>
<path d="M3282 1190 c0 -14 2 -19 5 -12 2 6 2 18 0 25 -3 6 -5 1 -5 -13z"/>
<path d="M1193 1150 c-10 -26 -10 -30 2 -20 7 6 28 9 47 6 89 -13 118 -16 118
-9 0 5 -21 9 -48 11 -72 4 -100 12 -104 29 -2 9 -8 2 -15 -17z"/>
<path d="M2819 1163 c-13 -16 -12 -17 4 -4 16 13 21 21 13 21 -2 0 -10 -8 -17
-17z"/>
<path d="M1481 1121 c0 -19 -9 -43 -18 -53 -16 -18 -16 -18 0 -12 20 7 31 41
24 75 -3 18 -5 15 -6 -10z"/>
<path d="M750 1095 c0 -9 6 -12 15 -9 8 4 15 10 15 15 0 5 -7 9 -15 9 -8 0
-15 -7 -15 -15z"/>
<path d="M1010 1088 c0 -16 37 -54 45 -47 2 3 -7 18 -20 33 -16 19 -25 24 -25
14z"/>
<path d="M2867 1075 c-15 -14 -24 -25 -19 -25 5 0 19 11 32 25 30 32 23 32
-13 0z"/>
<path d="M3040 1091 c0 -6 4 -13 10 -16 6 -3 7 1 4 9 -7 18 -14 21 -14 7z"/>
<path d="M776 1063 c-11 -11 -6 -23 9 -23 8 0 15 4 15 9 0 13 -16 22 -24 14z"/>
<path d="M1139 1053 c-13 -16 -12 -17 4 -4 9 7 17 15 17 17 0 8 -8 3 -21 -13z"/>
<path d="M8670 1052 c0 -5 7 -15 15 -22 8 -7 15 -8 15 -2 0 5 -7 15 -15 22 -8
7 -15 8 -15 2z"/>
<path d="M1078 1033 c7 -3 16 -2 19 1 4 3 -2 6 -13 5 -11 0 -14 -3 -6 -6z"/>
<path d="M555 979 c-4 -6 -5 -13 -2 -16 7 -7 27 6 27 18 0 12 -17 12 -25 -2z"/>
<path d="M3669 963 c-12 -16 -12 -17 1 -6 8 6 26 13 40 16 l25 4 -26 2 c-15 0
-33 -7 -40 -16z"/>
<path d="M593 935 c0 -18 19 -15 25 3 2 7 -3 12 -10 12 -8 0 -15 -7 -15 -15z"/>
<path d="M8720 940 c0 -6 -4 -8 -10 -5 -5 3 -10 2 -10 -4 0 -5 5 -13 10 -16 6
-3 10 -1 10 5 0 7 8 9 20 5 11 -3 20 -4 20 -1 0 3 -9 10 -20 16 -14 8 -20 8
-20 0z"/>
<path d="M3607 906 c10 -13 19 -23 21 -21 5 5 -22 45 -31 45 -4 0 0 -11 10
-24z"/>
<path d="M4030 865 c0 -18 5 -25 20 -25 11 0 20 4 20 9 0 5 3 16 6 25 5 12 0
16 -20 16 -21 0 -26 -5 -26 -25z"/>
<path d="M4110 881 c0 -5 -3 -16 -6 -25 -5 -12 0 -16 20 -16 21 0 26 5 26 25
0 18 -5 25 -20 25 -11 0 -20 -4 -20 -9z"/>
<path d="M6738 863 c7 -3 16 -2 19 1 4 3 -2 6 -13 5 -11 0 -14 -3 -6 -6z"/>
<path d="M6643 849 c-61 -18 -38 -39 72 -69 102 -28 172 -58 179 -76 4 -9 -12
-34 -38 -62 -58 -63 -68 -84 -56 -116 14 -38 58 -60 168 -85 256 -57 639 -77
913 -46 345 38 599 143 599 247 0 82 -143 149 -410 193 -127 20 -140 18 -50
-8 95 -28 160 -64 179 -99 15 -26 14 -29 -13 -57 -71 -74 -387 -131 -716 -131
-198 0 -452 29 -487 56 -19 13 -20 11 19 74 10 15 10 25 2 38 -15 23 -108 59
-216 83 -50 11 -100 25 -112 31 -20 11 -20 12 9 24 36 16 8 17 -42 3z m1547
-214 c-43 -52 -254 -116 -445 -135 -247 -26 -701 12 -731 61 -4 7 0 9 12 5
185 -56 637 -59 904 -5 99 20 236 65 246 80 3 5 10 9 16 9 6 0 6 -6 -2 -15z"/>
<path d="M6408 843 c7 -3 16 -2 19 1 4 3 -2 6 -13 5 -11 0 -14 -3 -6 -6z"/>
<path d="M425 830 c-3 -5 -1 -10 4 -10 6 0 11 5 11 10 0 6 -2 10 -4 10 -3 0
-8 -4 -11 -10z"/>
<path d="M6340 830 c-23 -16 8 -34 88 -55 85 -21 152 -50 152 -66 0 -7 -26
-40 -59 -73 -71 -75 -101 -131 -101 -189 0 -180 358 -307 950 -336 102 -6 246
-6 320 -2 74 4 108 9 75 10 -684 19 -1075 91 -1225 227 -93 84 -75 178 58 316
36 38 43 50 34 61 -11 13 -94 39 -239 77 -47 12 -56 26 -20 33 19 4 19 4 2 5
-11 1 -27 -3 -35 -8z"/>
<path d="M8378 813 c7 -3 16 -2 19 1 4 3 -2 6 -13 5 -11 0 -14 -3 -6 -6z"/>
<path d="M903 778 c3 -18 14 -104 24 -190 17 -150 19 -158 39 -158 20 0 28 19
78 175 31 96 59 182 63 191 4 12 0 15 -18 12 -21 -3 -28 -18 -63 -130 -22 -71
-43 -128 -46 -128 -4 0 -13 59 -20 130 -12 128 -13 130 -37 130 -23 0 -25 -3
-20 -32z"/>
<path d="M1200 797 c-14 -7 -31 -25 -39 -41 -16 -34 -30 -137 -31 -223 0 -55
3 -64 26 -82 45 -35 119 -24 150 24 25 39 50 247 33 286 -19 47 -85 63 -139
36z m90 -42 c9 -11 9 -39 0 -127 -14 -133 -27 -161 -73 -156 -31 3 -32 5 -35
52 -4 65 15 215 29 232 15 18 63 18 79 -1z"/>
<path d="M1407 643 c-24 -236 -30 -213 52 -213 60 0 69 2 74 20 5 18 0 20 -44
20 -33 0 -49 4 -49 13 0 6 7 71 15 142 20 180 20 185 -8 185 -23 0 -24 -4 -40
-167z"/>
<path d="M1620 800 c0 -15 -29 -287 -35 -332 -5 -35 -3 -38 19 -38 25 0 36 28
36 90 0 32 19 90 29 90 5 0 20 -40 35 -90 24 -81 29 -90 51 -90 l24 0 -15 49
c-8 27 -21 68 -29 91 -22 61 -19 75 25 155 22 40 40 75 40 79 0 3 -9 6 -20 6
-14 0 -33 -23 -66 -80 -45 -79 -71 -110 -61 -74 3 11 8 49 12 87 l7 67 -26 0
c-14 0 -26 -5 -26 -10z"/>
<path d="M1892 800 c-29 -12 -55 -73 -47 -109 3 -15 30 -52 60 -81 43 -43 55
-61 55 -85 0 -36 -15 -55 -45 -55 -29 0 -45 19 -45 53 0 25 -3 27 -22 21 -32
-9 -32 -10 -20 -53 14 -46 53 -67 105 -57 50 9 72 39 72 96 0 45 -4 52 -57
108 -58 61 -71 95 -46 120 28 28 78 7 78 -34 0 -17 4 -21 20 -17 23 6 27 49 7
77 -15 20 -82 30 -115 16z"/>
<path d="M2125 798 c-34 -18 -45 -40 -45 -86 0 -39 5 -49 56 -102 58 -61 70
-94 44 -125 -29 -35 -80 -8 -80 44 0 17 -4 19 -22 12 -31 -11 -26 -58 9 -90
57 -50 153 -2 153 76 0 43 -24 84 -79 136 -42 39 -52 72 -29 95 28 28 78 7 78
-34 0 -17 5 -20 26 -16 17 3 23 9 20 19 -3 8 -6 21 -6 29 0 43 -77 69 -125 42z"/>
<path d="M2350 783 c-31 -28 -33 -34 -48 -154 -18 -151 -11 -178 51 -193 69
-17 118 19 132 97 6 35 4 37 -20 37 -21 0 -25 -5 -25 -28 0 -37 -26 -72 -54
-72 -45 0 -50 19 -37 142 13 122 28 158 65 158 34 0 50 -24 43 -65 -5 -32 -4
-35 19 -35 22 0 24 4 24 48 0 63 -16 83 -72 89 -40 5 -49 2 -78 -24z"/>
<path d="M2575 768 c-6 -50 -35 -316 -35 -329 0 -5 11 -9 24 -9 22 0 24 5 31
73 10 109 9 107 66 107 46 0 49 -2 45 -22 -3 -13 -8 -53 -11 -90 l-7 -68 26 0
c16 0 26 6 26 14 0 18 28 278 35 329 5 34 3 37 -19 37 -26 0 -25 3 -41 -122
l-6 -48 -50 0 -50 0 6 58 c3 31 9 69 11 85 5 24 2 27 -20 27 -22 0 -25 -5 -31
-42z"/>
<path d="M2847 788 c-3 -13 -11 -84 -18 -160 -11 -124 -11 -138 4 -162 21 -31
58 -42 105 -30 60 15 72 43 91 215 17 150 17 154 -2 157 -10 2 -21 2 -23 -1
-3 -2 -12 -69 -20 -148 -17 -154 -29 -189 -68 -189 -51 0 -54 24 -30 273 6 63
6 67 -13 67 -13 0 -23 -8 -26 -22z"/>
<path d="M3116 788 c-6 -26 -36 -314 -36 -340 0 -15 10 -18 69 -18 65 0 81 7
81 36 0 2 -23 4 -50 4 l-51 0 6 48 c3 26 12 102 19 170 l12 122 -23 0 c-15 0
-24 -7 -27 -22z"/>
<path d="M3309 783 c0 -16 -8 -101 -18 -190 l-17 -163 73 0 c66 0 73 2 73 20
0 17 -7 20 -45 20 -50 0 -51 2 -39 94 7 46 7 46 45 46 28 0 39 4 39 15 0 10
-11 15 -35 15 -35 0 -35 1 -35 43 0 77 7 87 55 87 38 0 55 11 55 36 0 2 -34 4
-75 4 l-75 0 -1 -27z"/>
<path d="M3800 805 c0 -11 -30 -291 -35 -327 -5 -35 -3 -38 19 -38 26 0 36 21
36 76 0 17 3 46 6 63 6 27 10 31 40 31 27 0 34 4 34 20 0 16 -7 20 -33 20
l-32 0 5 58 5 57 48 3 c39 3 47 6 47 23 0 17 -7 19 -70 19 -38 0 -70 -2 -70
-5z"/>
<path d="M4021 794 c-36 -26 -50 -74 -57 -197 -7 -108 -6 -115 15 -136 28 -28
98 -29 134 -1 34 27 45 70 53 201 6 100 6 107 -15 128 -26 26 -96 29 -130 5z
m97 -73 c4 -59 -15 -210 -29 -227 -18 -22 -68 -18 -77 7 -11 29 12 235 28 254
8 10 25 15 44 13 29 -3 31 -6 34 -47z"/>
<path d="M4245 788 c-4 -20 -35 -320 -35 -340 0 -5 11 -8 24 -8 23 0 24 4 32
83 l9 82 48 3 48 3 -7 -85 -7 -86 25 0 c24 0 25 2 36 128 7 70 15 153 19 185
6 56 5 57 -20 57 -24 0 -25 -3 -32 -80 l-7 -80 -49 0 -50 0 7 68 c3 37 7 73
10 80 2 7 -6 12 -21 12 -17 0 -26 -7 -30 -22z"/>
<path d="M4496 648 c-21 -212 -21 -210 7 -206 20 3 23 11 31 86 7 76 10 82 30
82 21 0 24 -8 36 -85 12 -79 15 -85 37 -85 27 0 27 2 8 102 -14 77 -14 78 9
101 28 28 40 85 26 121 -12 33 -45 46 -114 46 l-53 0 -17 -162z m134 107 c17
-20 4 -82 -20 -95 -10 -5 -28 -10 -39 -10 -23 0 -27 27 -15 89 5 26 11 31 34
31 15 0 33 -7 40 -15z"/>
<path d="M4760 801 c0 -12 -29 -288 -34 -328 l-5 -33 75 0 c59 0 74 3 74 15 0
11 -12 15 -45 15 -44 0 -45 1 -45 33 0 17 3 49 6 70 6 35 8 37 45 37 32 0 39
3 39 20 0 16 -7 20 -38 20 -38 0 -38 0 -35 38 8 80 9 82 58 82 38 0 45 3 45
20 0 18 -7 20 -70 20 -38 0 -70 -4 -70 -9z"/>
<path d="M4956 778 c-3 -18 -10 -80 -16 -138 -6 -58 -13 -126 -16 -152 -5 -43
-4 -48 14 -48 23 0 28 15 37 130 11 124 15 124 55 -5 41 -134 64 -159 74 -83
6 39 36 314 36 324 0 2 -9 4 -19 4 -22 0 -27 -17 -37 -135 -3 -44 -9 -84 -12
-90 -3 -5 -22 42 -42 105 -25 80 -41 116 -52 118 -12 2 -18 -6 -22 -30z"/>
<path d="M5204 688 c11 -215 16 -248 36 -248 13 0 25 29 56 132 39 133 39 133
45 88 4 -25 10 -84 14 -132 6 -75 9 -88 24 -88 15 0 27 32 65 173 25 96 46
179 46 185 0 7 -8 12 -18 12 -15 0 -23 -22 -47 -120 -16 -66 -32 -120 -36
-120 -4 0 -10 54 -14 120 -6 108 -9 120 -26 120 -18 0 -23 -12 -81 -210 l-13
-45 -6 65 c-4 36 -7 93 -8 128 -1 56 -3 62 -22 62 -21 0 -21 -2 -15 -122z"/>
<path d="M5597 803 c-4 -7 -48 -145 -97 -305 l-18 -58 24 0 c20 0 26 7 35 45
11 44 13 45 50 45 37 0 38 -1 45 -45 5 -38 10 -45 28 -45 l22 0 -17 158 c-10
86 -18 169 -18 185 -1 22 -6 27 -25 27 -14 0 -27 -3 -29 -7z m23 -125 c0 -18
3 -50 6 -70 6 -37 6 -38 -25 -38 -17 0 -31 3 -31 6 0 20 36 134 42 134 4 0 8
-15 8 -32z"/>
<path d="M5757 638 c-10 -95 -17 -179 -17 -185 0 -9 21 -13 70 -13 56 0 70 3
70 15 0 11 -12 15 -45 15 -25 0 -45 3 -45 8 0 4 7 68 15 142 20 186 20 190 -8
190 -23 0 -24 -3 -40 -172z"/>
<path d="M5965 788 c-4 -20 -35 -320 -35 -340 0 -13 113 -9 140 5 40 19 58 71
66 183 4 56 4 113 1 126 -8 32 -45 48 -112 48 -49 0 -55 -3 -60 -22z m118
-136 c-3 -131 -14 -162 -61 -176 -18 -5 -34 -7 -36 -5 -2 2 2 63 10 134 7 72
14 138 14 148 0 15 7 18 38 15 l37 -3 -2 -113z"/>
<path d="M356 767 c-20 -27 -24 -40 -19 -75 6 -45 11 -48 82 -50 47 -2 32 9
-20 14 -45 4 -67 14 -31 14 34 0 36 20 3 31 -45 16 -38 30 11 23 44 -7 45 -2
10 39 -21 24 1 22 23 -3 10 -11 23 -20 28 -20 6 0 -2 14 -18 30 -16 17 -32 30
-36 30 -5 0 -19 -15 -33 -33z m39 -27 c8 -13 -5 -13 -25 0 -13 8 -13 10 2 10
9 0 20 -4 23 -10z"/>
<path d="M6616 785 c10 -8 64 -29 119 -46 55 -17 106 -36 113 -42 7 -6 12 -6
12 0 0 13 -61 39 -125 54 -27 7 -67 20 -87 30 -45 23 -59 24 -32 4z"/>
<path d="M8485 781 c136 -49 246 -122 277 -185 101 -209 -342 -391 -1037 -426
-115 -6 -214 -13 -220 -15 -21 -8 237 -4 380 5 465 31 813 128 943 262 117
122 11 254 -278 348 -98 32 -148 40 -65 11z"/>
<path d="M635 733 l-40 -13 41 6 c40 5 41 4 48 -27 11 -56 10 -58 -51 -62 -52
-3 -50 -3 17 -4 41 -1 69 1 63 4 -7 2 -13 19 -13 36 -1 18 -6 41 -13 53 -11
19 -15 19 -52 7z"/>
<path d="M564 725 c-19 -14 -18 -14 4 -15 13 0 22 6 22 15 0 19 -1 19 -26 0z"/>
<path d="M472 654 c-10 -11 -10 -14 5 -12 10 0 27 0 38 -1 17 -1 18 -3 5 -11
-24 -15 2 -11 30 5 l25 14 -35 1 c-20 0 -40 4 -45 9 -6 6 -15 4 -23 -5z"/>
<path d="M616 611 c-3 -5 10 -35 29 -67 19 -32 34 -62 32 -67 -4 -13 -124 -55
-136 -48 -5 3 -16 31 -24 61 -9 33 -15 45 -16 30 -1 -28 14 -99 23 -107 24
-25 185 4 169 30 -4 7 -6 20 -4 30 1 11 -14 43 -33 73 -41 62 -43 69 -17 54
11 -5 28 -10 38 -10 11 1 5 7 -16 15 -39 18 -38 17 -45 6z"/>
<path d="M496 563 c-6 -14 -5 -15 5 -6 7 7 10 15 7 18 -3 3 -9 -2 -12 -12z"/>
<path d="M425 544 c-11 -8 -30 -13 -42 -12 -12 2 -22 0 -23 -4 -1 -29 0 -32
12 -20 7 7 19 12 28 12 9 0 25 9 35 20 21 24 18 25 -10 4z"/>
<path d="M8354 474 c-218 -103 -603 -158 -952 -135 -168 11 -361 38 -462 66
-30 8 -56 13 -57 11 -9 -9 156 -61 262 -82 411 -83 904 -40 1175 102 57 30
124 75 110 73 -3 0 -37 -16 -76 -35z"/>
<path d="M712 412 c-7 -2 -10 -8 -7 -12 4 -7 -12 -22 -75 -68 -2 -1 8 -13 24
-25 21 -17 27 -29 24 -51 -3 -25 2 -30 29 -40 41 -14 65 -36 40 -36 -9 0 -17
-4 -17 -10 0 -18 29 -11 40 9 7 14 7 27 0 43 -6 13 -18 62 -28 109 -12 58 -21
84 -30 81z m-2 -47 c0 -15 -25 -55 -35 -55 -23 0 -25 14 -3 37 20 21 38 30 38
18z"/>
<path d="M560 360 c0 -5 -18 -15 -40 -21 -22 -7 -40 -18 -40 -25 0 -20 11 -44
21 -44 6 0 5 9 -1 21 -14 25 -14 25 35 42 36 13 60 37 36 37 -6 0 -11 -4 -11
-10z"/>
<path d="M642 178 c5 -15 28 -23 28 -10 0 5 -7 13 -16 16 -10 4 -14 1 -12 -6z"/>
<path d="M7233 173 c9 -2 23 -2 30 0 6 3 -1 5 -18 5 -16 0 -22 -2 -12 -5z"/>
<path d="M7358 163 c23 -2 59 -2 80 0 20 2 1 4 -43 4 -44 0 -61 -2 -37 -4z"/>
<path d="M1700 130 c-16 -6 -6 -7 30 -3 30 3 57 7 59 9 8 7 -64 2 -89 -6z"/>
<path d="M7858 123 c12 -2 32 -2 45 0 12 2 2 4 -23 4 -25 0 -35 -2 -22 -4z"/>
<path d="M1613 113 c9 -2 25 -2 35 0 9 3 1 5 -18 5 -19 0 -27 -2 -17 -5z"/>
<path d="M1495 100 l-30 -8 30 0 c17 0 44 4 60 8 l30 8 -30 0 c-16 0 -43 -4
-60 -8z"/>
</g>
</svg>
